<svg width="1920" height="1200" viewBox="0 0 1920 1200" fill="none" xmlns="http://www.w3.org/2000/svg">
<g opacity="0.2">
<path d="M1920 111.45V303C1912.95 305.55 1905.6 307.35 1897.8 308.25C1842 315.15 1791 275.55 1784.1 219.75C1777.2 163.95 1816.8 112.95 1872.6 106.05C1889.25 104.1 1905.3 106.2 1920 111.45Z" fill="#2F2544"/>
<path d="M523.5 515.1C556.5 509.7 578.7 478.65 573.3 445.65C567.9 412.65 536.85 390.45 503.85 395.85C470.85 401.25 448.65 432.3 454.05 465.3C459.6 498.15 490.65 520.35 523.5 515.1Z" fill="#03CADA"/>
<path d="M1615.05 722.25L1500.6 834.45L1674.6 823.95L1615.05 722.25ZM1614.15 730.65L1666.05 819.3L1513.95 828.45L1614.15 730.65Z" fill="#03CADA"/>
<path d="M503.1 204.9L458.4 249.6L492 283.2L536.7 238.5L503.1 204.9Z" fill="#2F2544"/>
<path d="M190.05 1200H113.85L128.4 1185.45L130.65 1183.2L151.95 1161.9L190.05 1200Z" fill="#2F2544"/>
<path d="M1275.45 941.55C1317.6 933.45 1345.05 892.8 1337.1 850.8C1329 808.65 1288.35 781.2 1246.35 789.15C1204.2 797.25 1176.75 837.9 1184.7 879.9C1192.8 921.9 1233.45 949.5 1275.45 941.55Z" fill="#03CADA"/>
<path d="M1207.5 875.7L1188.9 894.3L1164.75 918.45L1198.05 951.75L1219.2 930.6L1240.8 909L1207.5 875.7ZM1213.95 927L1198.05 942.75L1173.75 918.45L1207.35 884.85L1231.65 909.15L1213.95 927Z" fill="#2F2544"/>
<path d="M1230 100.95L1165.5 165.45L1215.9 215.85L1280.4 151.35L1230 100.95ZM1179.3 165.75L1230.3 114.75L1266.9 151.35L1215.9 202.35L1179.3 165.75Z" fill="#03CADA"/>
<path d="M1076.55 79.35C1076.55 72 1070.4 65.85 1063.05 65.85C1055.7 65.85 1049.55 72 1049.55 79.35C1049.55 86.7 1055.7 92.85 1063.05 92.85C1070.4 93 1076.55 86.85 1076.55 79.35Z" fill="#7B6490"/>
<path d="M264.45 690C271.5 673.35 263.7 654.15 247.05 647.1C230.4 640.05 211.2 647.85 204.15 664.5C197.1 681.15 204.9 700.35 221.55 707.4C238.2 714.45 257.4 706.65 264.45 690Z" fill="#03CADA"/>
<path d="M222.45 559.65C222.45 557.1 220.35 555 217.8 555C215.25 555 213.15 557.1 213.15 559.65C213.15 562.2 215.25 564.3 217.8 564.3C220.35 564.15 222.45 562.2 222.45 559.65Z" fill="#2F2544"/>
<path d="M265.8 559.65C265.8 557.1 263.7 555 261.15 555C258.6 555 256.5 557.1 256.5 559.65C256.5 562.2 258.6 564.3 261.15 564.3C263.7 564.3 265.8 562.2 265.8 559.65Z" fill="#2F2544"/>
<path d="M309 559.65C309 557.1 306.9 555 304.35 555C301.8 555 299.7 557.1 299.7 559.65C299.7 562.2 301.8 564.3 304.35 564.3C306.9 564.15 309 562.2 309 559.65Z" fill="#2F2544"/>
<path d="M243.45 580.8C243.45 578.25 241.35 576.15 238.8 576.15C236.25 576.15 234.15 578.25 234.15 580.8C234.15 583.35 236.25 585.45 238.8 585.45C241.35 585.15 243.45 583.2 243.45 580.8Z" fill="#2F2544"/>
<path d="M286.8 580.8C286.8 578.25 284.7 576.15 282.15 576.15C279.6 576.15 277.5 578.25 277.5 580.8C277.5 583.35 279.6 585.45 282.15 585.45C284.7 585.45 286.8 583.2 286.8 580.8Z" fill="#2F2544"/>
<path d="M222.45 603.6C222.45 601.05 220.35 598.95 217.8 598.95C215.25 598.95 213.15 601.05 213.15 603.6C213.15 606.15 215.25 608.25 217.8 608.25C220.35 608.25 222.45 606.15 222.45 603.6Z" fill="#2F2544"/>
<path d="M265.8 603.6C265.8 601.05 263.7 598.95 261.15 598.95C258.6 598.95 256.5 601.05 256.5 603.6C256.5 606.15 258.6 608.25 261.15 608.25C263.7 608.25 265.8 606.15 265.8 603.6Z" fill="#2F2544"/>
<path d="M309 603.6C309 601.05 306.9 598.95 304.35 598.95C301.8 598.95 299.7 601.05 299.7 603.6C299.7 606.15 301.8 608.25 304.35 608.25C306.9 608.25 309 606.15 309 603.6Z" fill="#2F2544"/>
<path d="M243.45 624.9C243.45 622.35 241.35 620.25 238.8 620.25C236.25 620.25 234.15 622.35 234.15 624.9C234.15 627.45 236.25 629.55 238.8 629.55C241.35 629.25 243.45 627.15 243.45 624.9Z" fill="#2F2544"/>
<path d="M286.8 624.9C286.8 622.35 284.7 620.25 282.15 620.25C279.6 620.25 277.5 622.35 277.5 624.9C277.5 627.45 279.6 629.55 282.15 629.55C284.7 629.55 286.8 627.15 286.8 624.9Z" fill="#2F2544"/>
<path d="M222.45 647.4C222.45 644.85 220.35 642.75 217.8 642.75C215.25 642.75 213.15 644.85 213.15 647.4C213.15 649.95 215.25 652.05 217.8 652.05C220.35 652.05 222.45 649.95 222.45 647.4Z" fill="#2F2544"/>
<path d="M265.8 647.4C265.8 644.85 263.7 642.75 261.15 642.75C258.6 642.75 256.5 644.85 256.5 647.4C256.5 649.95 258.6 652.05 261.15 652.05C263.7 652.05 265.8 649.95 265.8 647.4Z" fill="#2F2544"/>
<path d="M309 647.4C309 644.85 306.9 642.75 304.35 642.75C301.8 642.75 299.7 644.85 299.7 647.4C299.7 649.95 301.8 652.05 304.35 652.05C306.9 652.05 309 649.95 309 647.4Z" fill="#2F2544"/>
<path d="M243.45 668.4C243.45 665.85 241.35 663.75 238.8 663.75C236.25 663.75 234.15 665.85 234.15 668.4C234.15 670.95 236.25 673.05 238.8 673.05C241.35 673.05 243.45 670.95 243.45 668.4Z" fill="#2F2544"/>
<path d="M286.8 668.4C286.8 665.85 284.7 663.75 282.15 663.75C279.6 663.75 277.5 665.85 277.5 668.4C277.5 670.95 279.6 673.05 282.15 673.05C284.7 673.05 286.8 670.95 286.8 668.4Z" fill="#2F2544"/>
<path d="M786.15 1127.4L738.75 1080C727.5 1073.1 715.2 1067.7 702.9 1064.1L801.9 1163.1C798.75 1150.95 793.35 1138.65 786.15 1127.4Z" fill="#2F2544"/>
<path d="M807.75 1200H801L659.85 1058.85C666.75 1058.55 673.95 1059.15 680.85 1059.9L806.85 1185.9C807.15 1190.55 807.6 1195.2 807.75 1200Z" fill="#2F2544"/>
<path d="M783.3 1200H763.35L626.55 1063.2C631.95 1061.7 637.5 1060.65 643.2 1059.9L783.3 1200Z" fill="#2F2544"/>
<path d="M745.2 1200H725.1L598.8 1073.7C603.45 1071.45 608.1 1069.35 612.9 1067.55L745.2 1200Z" fill="#2F2544"/>
<path d="M707.4 1200H687.45L575.4 1087.95C579.3 1084.8 583.05 1082.25 587.25 1079.7L707.4 1200Z" fill="#2F2544"/>
<path d="M669.6 1200H649.65L555.9 1106.25C557.4 1104.45 558.9 1102.95 560.7 1101.15C562.5 1099.65 564 1097.85 565.8 1096.2L669.6 1200Z" fill="#2F2544"/>
<path d="M631.95 1200H612L539.7 1127.7C542.25 1123.8 545.1 1119.75 547.95 1116L631.95 1200Z" fill="#2F2544"/>
<path d="M594 1200H573.9L527.1 1153.2C528.9 1148.4 531 1143.75 533.25 1139.1L594 1200Z" fill="#2F2544"/>
<path d="M556.2 1200H536.25L519.75 1183.5C520.5 1177.8 521.55 1172.55 523.05 1166.85L556.2 1200Z" fill="#2F2544"/>
<path d="M1705.8 0L1558.35 147.45C1554.3 146.4 1550.4 145.2 1546.35 143.55L1625.7 64.2L1689.9 0H1705.8Z" fill="#03CADA"/>
<path d="M1469.4 0L1462.8 6.6C1463.1 4.35 1463.4 2.1 1463.85 0H1469.4Z" fill="#03CADA"/>
<path d="M1719 4.64996L1573.35 150.3C1578.15 151.05 1583.1 151.35 1588.2 151.65L1720.35 19.5C1720.05 14.55 1719.6 9.44996 1719 4.64996Z" fill="#03CADA"/>
<path d="M1671.9 0L1533.6 138.3C1530 136.5 1526.7 134.7 1523.4 132.6L1656 0H1671.9Z" fill="#03CADA"/>
<path d="M1503.3 0L1463.1 40.2C1462.35 35.1 1461.75 30.3 1461.75 25.35L1487.1 0H1503.3Z" fill="#03CADA"/>
<path d="M1570.5 0L1480.65 89.85C1478.55 86.55 1476.75 83.25 1474.95 79.65L1554.75 0H1570.5Z" fill="#03CADA"/>
<path d="M1719.3 38.1L1606.95 150.45C1613.55 149.7 1620.3 148.35 1626.9 146.4L1715.25 58.05C1717.05 51.75 1718.25 45 1719.3 38.1Z" fill="#03CADA"/>
<path d="M1536.9 0L1469.7 67.05C1468.2 63.15 1466.85 59.1 1465.8 55.05L1520.85 0H1536.9Z" fill="#03CADA"/>
<path d="M1638.45 0L1513.05 125.4C1509.9 123.15 1507.2 120.75 1504.35 118.2L1622.55 0H1638.45Z" fill="#03CADA"/>
<path d="M1604.55 0L1495.2 109.35C1492.65 106.5 1490.4 103.65 1488 100.65L1588.8 0H1604.55Z" fill="#03CADA"/>
<path d="M1700.85 90.15L1658.55 132.45C1666.95 127.35 1674.9 121.2 1682.1 113.7C1689.6 106.5 1695.75 98.55 1700.85 90.15Z" fill="#03CADA"/>
<path d="M842.25 706.05L692.25 856.05C695.85 857.4 699.45 858.6 703.2 859.35L845.55 717C844.8 713.25 843.6 709.65 842.25 706.05Z" fill="#03CADA"/>
<path d="M650.25 664.05C643.65 670.65 637.95 677.85 633.3 685.35L671.4 647.25C663.75 651.75 656.7 657.45 650.25 664.05Z" fill="#03CADA"/>
<path d="M700.35 634.35L620.55 714.15C618.75 720 617.7 726.15 616.95 732L718.65 630.3C712.5 631.35 706.35 632.55 700.35 634.35Z" fill="#03CADA"/>
<path d="M848.4 730.35L716.85 861.9C721.2 862.35 725.85 862.95 730.2 862.95L849.45 743.7C849.15 739.35 848.85 735 848.4 730.35Z" fill="#03CADA"/>
<path d="M832.2 685.5L671.7 846C674.7 847.8 677.85 849.6 680.85 851.1L837.3 694.65C835.8 691.65 834 688.65 832.2 685.5Z" fill="#03CADA"/>
<path d="M735.45 629.7L616.2 748.95C616.2 753.3 616.65 757.95 617.25 762.3L748.8 630.75C744.15 630.3 739.8 630 735.45 629.7Z" fill="#03CADA"/>
<path d="M784.35 641.85L627.9 798.15C629.4 801.15 631.2 804.3 633 807.3L793.5 646.8C790.5 645.15 787.5 643.35 784.35 641.85Z" fill="#03CADA"/>
<path d="M848.7 760.8L747 862.5C753.15 861.75 759 860.4 764.85 858.9L844.65 779.1C846.6 772.8 847.95 766.65 848.7 760.8Z" fill="#03CADA"/>
<path d="M762.15 633.6L619.8 775.95C620.85 779.55 621.9 783.3 623.1 786.9L773.1 636.9C769.5 635.7 765.9 634.65 762.15 633.6Z" fill="#03CADA"/>
<path d="M819.15 668.1L654.3 832.95C656.85 835.2 659.4 837.3 662.25 839.4L825.9 675.75C823.5 673.35 821.55 670.65 819.15 668.1Z" fill="#03CADA"/>
<path d="M803.4 653.55L639.75 817.2C641.85 819.75 643.8 822.6 646.2 825.15L811.05 660.3C808.5 657.6 805.95 655.65 803.4 653.55Z" fill="#03CADA"/>
<path d="M832.05 807.75L793.95 845.85C801.6 841.2 808.8 835.65 815.25 828.9C821.7 822.6 827.4 815.4 832.05 807.75Z" fill="#03CADA"/>
<path d="M219.6 109.8C230.4 109.8 240.9 108.45 251.1 106.2H188.1C198.45 108.3 208.95 109.8 219.6 109.8Z" fill="#03CADA"/>
<path d="M153.9 92.7H285.45C291.6 89.1 297.75 85.35 303.3 80.85H135.9C141.6 85.2 147.45 89.4 153.9 92.7Z" fill="#03CADA"/>
<path d="M121.35 67.6499H318C321.6 63.7499 324.9 59.9999 328.05 55.7999H111.15C114.45 59.8499 117.75 63.7499 121.35 67.6499Z" fill="#03CADA"/>
<path d="M90.8998 17.3999H348.45C349.8 13.4999 351 9.44993 351.75 5.54993H87.5999C88.3499 9.44993 89.5498 13.4999 90.8998 17.3999Z" fill="#03CADA"/>
<path d="M102.45 42.45H337.2C339.45 38.55 341.55 34.8 343.35 30.6H96.3C98.1 34.5 100.05 38.7 102.45 42.45Z" fill="#03CADA"/>
<path d="M1320.45 1179.15C1320.45 1175.85 1317.9 1173.3 1314.6 1173.3C1311.3 1173.3 1308.75 1175.85 1308.75 1179.15C1308.75 1182.45 1311.3 1185 1314.6 1185C1317.9 1185 1320.45 1182.45 1320.45 1179.15Z" fill="#7B6490"/>
<path d="M1377.3 1179.15C1377.3 1175.85 1374.75 1173.3 1371.45 1173.3C1368.15 1173.3 1365.6 1175.85 1365.6 1179.15C1365.6 1182.45 1368.15 1185 1371.45 1185C1374.75 1185 1377.3 1182.45 1377.3 1179.15Z" fill="#7B6490"/>
<path d="M1434.3 1179.15C1434.3 1175.85 1431.75 1173.3 1428.45 1173.3C1425.15 1173.3 1422.6 1175.85 1422.6 1179.15C1422.6 1182.45 1425.15 1185 1428.45 1185C1431.6 1185 1434.3 1182.45 1434.3 1179.15Z" fill="#7B6490"/>
<path d="M1491.15 1179.15C1491.15 1175.85 1488.6 1173.3 1485.3 1173.3C1482 1173.3 1479.45 1175.85 1479.45 1179.15C1479.45 1182.45 1482 1185 1485.3 1185C1488.6 1185 1491.15 1182.45 1491.15 1179.15Z" fill="#7B6490"/>
<path d="M1548.3 1179.15C1548.3 1175.85 1545.75 1173.3 1542.45 1173.3C1539.15 1173.3 1536.6 1175.85 1536.6 1179.15C1536.6 1182.45 1539.15 1185 1542.45 1185C1545.45 1185 1548.3 1182.45 1548.3 1179.15Z" fill="#7B6490"/>
<path d="M1699.05 1015.8L1642.05 1072.95C1633.65 1086.45 1627.2 1101.15 1622.85 1116.15L1742.1 996.9C1727.25 1000.95 1712.7 1007.4 1699.05 1015.8Z" fill="#03CADA"/>
<path d="M1768.95 991.2L1617.45 1142.7C1616.4 1151.1 1615.95 1159.65 1616.25 1168.05L1794.3 990C1785.9 990 1777.35 990.15 1768.95 991.2Z" fill="#03CADA"/>
<path d="M1834.5 995.55L1630.05 1200H1620.15C1619.25 1195.95 1618.5 1191.9 1617.9 1187.85L1814.25 991.5C1820.85 992.55 1827.9 993.75 1834.5 995.55Z" fill="#03CADA"/>
<path d="M1867.5 1007.85L1675.35 1200H1651.35L1850.7 1000.65C1856.25 1002.75 1861.95 1005.3 1867.5 1007.85Z" fill="#03CADA"/>
<path d="M1895.4 1025.55L1720.95 1200H1696.95L1881.45 1015.5C1886.25 1018.65 1891.05 1021.95 1895.4 1025.55Z" fill="#03CADA"/>
<path d="M1919.55 1047L1766.55 1200H1742.55L1907.55 1035C1909.65 1036.8 1911.6 1038.9 1913.7 1040.85C1915.65 1042.95 1917.45 1045.05 1919.55 1047Z" fill="#03CADA"/>
<path d="M1920 1068V1092.15L1812.15 1200H1788L1920 1068Z" fill="#03CADA"/>
<path d="M1920 1113.6V1137.6L1857.6 1200H1833.6L1920 1113.6Z" fill="#03CADA"/>
<path d="M1920 1159.2V1183.5L1903.5 1200H1879.2L1920 1159.2Z" fill="#03CADA"/>
<path d="M1380.15 404.25C1379.1 404.25 1378.35 403.95 1377.6 403.2C1376.1 401.7 1376.1 399.3 1377.6 398.1C1383.3 392.4 1389.45 393.3 1394.55 393.75C1399.65 394.2 1402.5 394.5 1405.5 391.5C1408.35 388.65 1408.35 385.65 1407.75 380.55C1407.3 375.45 1406.4 369.3 1412.1 363.6C1417.8 357.9 1423.95 358.8 1429.05 359.25C1434.15 359.7 1437 360 1440 357C1442.85 354.15 1442.85 351.15 1442.25 346.05C1441.8 340.95 1440.9 334.8 1446.6 329.1C1452.3 323.4 1458.45 324.3 1463.55 324.75C1468.65 325.2 1471.5 325.5 1474.5 322.5C1477.35 319.65 1477.35 316.65 1476.75 311.55C1476.3 306.45 1475.4 300.3 1481.1 294.6C1486.8 288.9 1492.95 289.8 1498.05 290.25C1503.15 290.7 1506 291 1509 288C1511.85 285.15 1511.85 282.15 1511.25 277.05C1510.8 271.95 1509.9 265.8 1515.6 260.1C1521.3 254.4 1527.3 255.3 1532.55 255.75C1537.65 256.2 1540.5 256.5 1543.5 253.5C1545 252 1547.4 252 1548.6 253.5C1550.1 255 1550.1 257.4 1548.6 258.6C1542.9 264.3 1536.9 263.4 1531.65 262.95C1526.4 262.5 1523.7 262.2 1520.7 265.2C1517.85 268.05 1517.85 271.05 1518.45 276.15C1518.9 281.25 1519.8 287.4 1514.1 293.1C1508.4 298.8 1502.4 297.9 1497.15 297.45C1492.05 297 1489.2 296.7 1486.2 299.7C1483.35 302.55 1483.35 305.55 1483.95 310.65C1484.4 315.75 1485.3 321.9 1479.6 327.6C1473.9 333.3 1467.9 332.4 1462.65 331.95C1457.55 331.5 1454.7 331.2 1451.7 334.2C1448.85 337.05 1448.85 340.05 1449.45 345.15C1449.9 350.25 1450.8 356.4 1445.1 362.1C1439.4 367.8 1433.25 366.9 1428.15 366.45C1423.05 366 1420.2 365.7 1417.2 368.7C1414.35 371.55 1414.35 374.55 1414.95 379.65C1415.4 384.75 1416.3 390.9 1410.6 396.6C1404.9 402.3 1398.9 401.4 1393.65 400.95C1388.55 400.5 1385.7 400.2 1382.7 403.2C1381.95 403.95 1380.9 404.25 1380.15 404.25Z" fill="#03CADA"/>
<path d="M1405.5 429.6C1404.45 429.6 1403.7 429.3 1402.95 428.55C1401.45 427.05 1401.45 424.65 1402.95 423.45C1408.65 417.75 1414.8 418.65 1419.9 419.1C1425 419.55 1427.85 419.85 1430.85 416.85C1433.7 414 1433.7 411 1433.1 405.9C1432.65 400.8 1431.75 394.65 1437.45 388.95C1443.15 383.25 1449.3 384.15 1454.4 384.6C1459.5 385.05 1462.35 385.35 1465.35 382.35C1468.2 379.5 1468.2 376.5 1467.6 371.4C1467.15 366.3 1466.25 360.15 1471.95 354.45C1477.65 348.75 1483.8 349.65 1488.9 350.1C1494 350.55 1496.85 350.85 1499.85 347.85C1502.7 345 1502.7 342 1502.1 336.9C1501.65 331.8 1500.9 325.65 1506.45 319.95C1512.15 314.25 1518.15 315.15 1523.4 315.6C1528.5 316.05 1531.35 316.35 1534.35 313.35C1537.2 310.5 1537.2 307.5 1536.6 302.4C1536.15 297.3 1535.25 291.15 1540.95 285.45C1546.65 279.75 1552.65 280.65 1557.9 281.1C1563 281.55 1565.85 281.85 1568.85 278.85C1570.35 277.35 1572.75 277.35 1573.95 278.85C1575.45 280.35 1575.45 282.75 1573.95 283.95C1568.25 289.65 1562.1 288.75 1557 288.3C1551.9 287.85 1549.05 287.55 1546.05 290.55C1543.2 293.4 1543.2 296.4 1543.8 301.5C1544.25 306.6 1545 312.75 1539.45 318.45C1533.75 324.15 1527.6 323.25 1522.5 322.8C1517.4 322.35 1514.55 322.05 1511.55 325.05C1508.7 327.9 1508.7 330.9 1509.3 336C1509.75 341.1 1510.5 347.25 1504.95 352.95C1499.25 358.65 1493.1 357.75 1488 357.3C1482.9 356.85 1480.05 356.55 1477.05 359.55C1474.2 362.4 1474.2 365.4 1474.8 370.5C1475.25 375.6 1476.15 381.75 1470.45 387.45C1464.75 393.15 1458.6 392.25 1453.5 391.8C1448.4 391.35 1445.55 391.05 1442.55 394.05C1439.7 396.9 1439.7 399.9 1440.3 405C1440.75 410.1 1441.65 416.25 1435.95 421.95C1430.25 427.65 1424.25 426.75 1419 426.3C1413.9 425.85 1411.05 425.55 1408.05 428.55C1407.3 429.3 1406.25 429.6 1405.5 429.6Z" fill="#03CADA"/>
<path d="M1430.85 454.95C1429.8 454.95 1429.05 454.65 1428.3 453.9C1426.8 452.4 1426.8 450 1428.3 448.8C1434 443.1 1440.15 444 1445.25 444.45C1450.35 444.9 1453.2 445.2 1456.2 442.2C1459.05 439.35 1459.05 436.35 1458.45 431.25C1458 426.15 1457.1 420 1462.8 414.3C1468.5 408.6 1474.65 409.5 1479.75 409.95C1484.85 410.4 1487.7 410.7 1490.7 407.7C1493.55 404.85 1493.55 401.85 1492.95 396.75C1492.5 391.65 1491.6 385.5 1497.3 379.8C1503 374.1 1509.15 375 1514.25 375.45C1519.35 375.9 1522.2 376.2 1525.2 373.2C1528.05 370.35 1528.05 367.35 1527.45 362.25C1527 357.15 1526.1 351 1531.8 345.3C1537.5 339.6 1543.5 340.5 1548.75 340.95C1553.85 341.4 1556.7 341.7 1559.7 338.7C1562.55 335.85 1562.55 332.85 1561.95 327.75C1561.5 322.65 1560.6 316.5 1566.3 310.8C1572 305.1 1578 306 1583.25 306.45C1588.35 306.9 1591.2 307.2 1594.2 304.2C1595.7 302.7 1598.1 302.7 1599.3 304.2C1600.8 305.7 1600.8 308.1 1599.3 309.3C1593.6 315 1587.45 314.1 1582.35 313.65C1577.25 313.2 1574.4 312.9 1571.4 315.9C1568.55 318.75 1568.55 321.75 1569.15 326.85C1569.6 331.95 1570.5 338.1 1564.8 343.8C1559.1 349.5 1552.95 348.6 1547.85 348.15C1542.75 347.7 1539.9 347.4 1536.9 350.4C1534.05 353.25 1534.05 356.25 1534.65 361.35C1535.1 366.45 1535.85 372.6 1530.3 378.3C1524.6 384 1518.45 383.1 1513.35 382.65C1508.25 382.2 1505.4 381.9 1502.4 384.9C1499.55 387.75 1499.55 390.75 1500.15 395.85C1500.6 400.95 1501.5 407.1 1495.8 412.8C1490.1 418.5 1483.95 417.6 1478.85 417.15C1473.75 416.7 1470.9 416.4 1467.9 419.4C1465.05 422.25 1465.05 425.25 1465.65 430.35C1466.1 435.45 1467 441.6 1461.3 447.3C1455.6 453 1449.6 452.1 1444.35 451.65C1439.25 451.2 1436.4 450.9 1433.4 453.9C1432.65 454.65 1431.6 454.95 1430.85 454.95Z" fill="#03CADA"/>
<path d="M821.7 40.5C781.2 40.5 748.5 73.2 748.5 113.7C748.5 154.2 781.2 186.9 821.7 186.9C862.2 186.9 894.9 154.2 894.9 113.7C894.9 73.2 862.2 40.5 821.7 40.5ZM821.7 180.45C784.8 180.45 754.95 150.75 754.95 113.85C754.95 76.95 784.95 47.1 821.7 47.1C858.6 47.1 888.45 77.25 888.45 113.85C888.6 150.6 858.6 180.45 821.7 180.45Z" fill="#03CADA"/>
<path d="M511.05 900.6C493.65 900.6 479.25 914.7 479.25 932.4C479.25 949.8 493.35 964.2 511.05 964.2C528.45 964.2 542.85 949.8 542.85 932.4C542.7 915 528.6 900.6 511.05 900.6ZM511.05 958.2C496.65 958.2 485.25 946.65 485.25 932.4C485.25 918 496.8 906.6 511.05 906.6C525.15 906.6 536.7 918.15 536.85 932.4C536.85 946.65 525.3 958.2 511.05 958.2Z" fill="#7B6490"/>
<path d="M1083.9 579C1081.8 579 1079.7 579.15 1077.75 579.3C1075.05 579.6 1072.5 579.9 1069.95 580.35C1055.7 583.2 1042.8 590.1 1032.75 600C1031.1 601.65 1029.6 603.3 1028.1 605.1C1017.45 617.85 1011 634.2 1011 652.05C1011 692.25 1043.7 724.95 1083.9 724.95C1124.4 724.95 1157.1 692.25 1156.8 652.05C1156.8 611.85 1124.1 579 1083.9 579ZM1083.9 710.85C1051.35 710.85 1024.8 684.45 1024.8 651.75C1024.8 637.8 1029.6 625.05 1037.7 615C1039.2 613.2 1040.7 611.55 1042.35 609.9C1048.8 603.45 1056.75 598.5 1065.75 595.65C1068.45 594.75 1071 594.15 1073.85 593.7C1077.15 593.1 1080.6 592.8 1084.05 592.8C1116.75 592.8 1143.45 619.5 1143.15 651.9C1143 684.3 1116.75 710.85 1083.9 710.85Z" fill="#7B6490"/>
<path d="M1083.9 282.9C1064.25 282.9 1048.35 298.8 1048.35 318.45C1048.35 338.1 1064.25 354 1083.9 354C1103.55 354 1119.45 337.8 1119.45 318.45C1119.45 298.8 1103.55 282.9 1083.9 282.9ZM1083.9 351C1065.9 351 1051.35 336.45 1051.35 318.45C1051.35 300.45 1065.9 285.9 1083.9 285.9C1101.75 285.9 1116.45 300.45 1116.45 318.45C1116.45 336.45 1101.75 351 1083.9 351Z" fill="#2F2544"/>
<path d="M1459.65 777.45C1459.65 771.75 1455 767.25 1449.45 767.25C1443.75 767.25 1439.25 771.9 1439.25 777.45C1439.25 783.15 1443.9 787.65 1449.45 787.65C1455.15 787.65 1459.65 783.15 1459.65 777.45Z" fill="white"/>
<path d="M1321.8 1017.6L1345.35 1102.35L1399.65 1047.6L1321.8 1017.6ZM1332.75 1029.6L1386.3 1050.3L1348.95 1088.25L1332.75 1029.6Z" fill="#2F2544"/>
<path d="M564.45 226.35C564.45 223.05 561.6 220.2 558.3 220.2C555 220.2 552.15 223.05 552.15 226.35C552.15 229.65 555 232.5 558.3 232.5C561.6 232.65 564.45 229.95 564.45 226.35Z" fill="white"/>
<path d="M589.5 337.2C598.8 337.2 606.45 329.7 606.45 320.25C606.45 310.95 598.95 303.3 589.5 303.3C580.2 303.3 572.55 310.8 572.55 320.25C572.7 329.55 580.2 337.2 589.5 337.2Z" fill="#2F2544"/>
<path d="M986.85 187.5C1002.45 187.5 1015.05 174.9 1015.05 159.3C1015.05 143.7 1002.45 131.1 986.85 131.1C971.25 131.1 958.65 143.7 958.65 159.3C958.65 174.9 971.25 187.5 986.85 187.5Z" fill="#03CADA"/>
<path d="M899.85 540.6C905.85 526.2 898.95 509.7 884.55 503.85C870.15 497.85 853.65 504.75 847.8 519.15C841.95 533.55 848.7 550.05 863.1 555.9C877.35 561.75 893.85 554.85 899.85 540.6Z" fill="#03CADA"/>
<path d="M0 32.25V40.5C26.1 43.35 46.35 65.4 46.35 92.4C46.35 119.1 26.1 141.3 0 144.3V152.55C30.6 149.55 54.6 123.75 54.6 92.4C54.6 61.05 30.6 35.25 0 32.25Z" fill="#03CADA"/>
<path d="M911.7 1192.5L913.8 1200H961.8L911.7 1192.5Z" fill="#2F2544"/>
<path d="M1540.8 903.75L1475.25 969.3L1518.45 1012.5L1585.05 943.65L1540.8 903.75Z" fill="#2F2544"/>
<path d="M162.3 816.6L100.65 878.55L141.3 919.2L204.3 854.25L162.3 816.6Z" fill="#03CADA"/>
<path d="M154.95 824.1L140.55 811.05L72.45 879.15L119.85 926.55L133.95 912L189 854.85L154.95 824.1ZM127.65 905.55L119.85 913.65L85.35 879.15L140.85 823.65L148.65 830.55L176.55 855.45L127.65 905.55Z" fill="#2F2544"/>
<path d="M331.2 883.2L376.2 838.2L346.2 808.5L300.6 855.9L331.2 883.2Z" fill="#03CADA"/>
<path d="M972.3 858.6L1017.3 813.75L987.3 783.75L941.7 831.15L972.3 858.6Z" fill="#2F2544"/>
<path d="M1021.2 0L979.8 41.4L936.75 2.85L939.45 0H924.3L921 3.3L979.95 56.25L1036.05 0H1021.2Z" fill="#2F2544"/>
<path d="M95.7 364.35C71.1 388.95 71.1 429.15 95.7 453.75C120.3 478.35 160.5 478.35 185.1 453.75L95.7 364.35Z" fill="#2F2544"/>
<path d="M46.8 715.8C33.9 728.7 16.8 734.7 0 734.25V673.35L46.8 626.55C71.4 651 71.4 691.2 46.8 715.8Z" fill="#03CADA"/>
<path d="M1707.75 917.25C1732.35 941.85 1772.55 941.85 1797.15 917.25C1821.75 892.65 1821.75 852.45 1797.15 827.85L1707.75 917.25Z" fill="#03CADA"/>
<path d="M8.25 240.9C18 231.75 33.15 232.2 42.3 241.65C51.45 251.4 51 266.55 41.55 275.7C31.8 284.85 16.65 284.4 7.5 274.95C-1.79999 265.2 -1.49999 249.9 8.25 240.9Z" fill="#2F2544"/>
<path d="M60.75 190.65C70.5 181.5 85.65 181.95 94.8 191.4C103.95 201.15 103.5 216.3 94.05 225.45C84.3 234.6 69.15 234.15 60 224.7C50.7 215.1 51 199.95 60.75 190.65Z" fill="#2F2544"/>
<path d="M28.2 261.9C21 268.8 10.8 270.3 2.25 266.7C1.5 266.4 0.75 265.95 0 265.65V223.35C9.45 218.25 21.3 219.9 28.95 227.85C31.35 230.25 33 233.1 34.05 236.1C37.35 244.8 35.25 255 28.2 261.9Z" fill="#03CADA"/>
<path d="M47.5499 176.85C57.2999 167.7 72.45 168.15 81.6 177.6C90.75 187.35 90.3 202.5 80.85 211.65C71.1 220.8 55.9499 220.35 46.7999 210.9C37.6499 201.15 37.9499 186.15 47.5499 176.85Z" fill="#03CADA"/>
<path d="M1064.4 1001.7C1073.55 1011.45 1073.1 1026.6 1063.65 1035.75C1053.9 1044.9 1038.75 1044.45 1029.6 1035C1020.45 1025.25 1020.9 1010.1 1030.35 1000.95C1040.1 991.5 1055.25 991.95 1064.4 1001.7Z" fill="#2F2544"/>
<path d="M1114.35 1054.2C1123.5 1063.95 1123.05 1079.1 1113.6 1088.25C1103.85 1097.4 1088.7 1096.95 1079.55 1087.5C1070.4 1077.75 1070.85 1062.6 1080.3 1053.45C1090.05 1044.15 1105.35 1044.45 1114.35 1054.2Z" fill="#2F2544"/>
<path d="M1164.6 1106.7C1173.75 1116.45 1173.3 1131.6 1163.85 1140.75C1154.1 1149.9 1138.95 1149.45 1129.8 1140C1120.65 1130.25 1121.1 1115.1 1130.55 1105.95C1140.3 1096.65 1155.3 1097.25 1164.6 1106.7Z" fill="#2F2544"/>
<path d="M1214.4 1159.35C1223.55 1169.1 1223.1 1184.25 1213.65 1193.4C1203.9 1202.55 1188.75 1202.1 1179.6 1192.65C1170.45 1182.9 1170.9 1167.75 1180.35 1158.6C1190.1 1149.45 1205.25 1149.75 1214.4 1159.35Z" fill="#2F2544"/>
<path d="M1078.35 988.35C1087.5 998.1 1087.05 1013.25 1077.6 1022.4C1067.85 1031.55 1052.7 1031.1 1043.55 1021.65C1034.4 1011.9 1034.85 996.75 1044.3 987.6C1053.9 978.45 1069.05 978.9 1078.35 988.35Z" fill="#03CADA"/>
<path d="M1128.15 1041.15C1137.3 1050.9 1136.85 1066.05 1127.4 1075.2C1117.65 1084.35 1102.5 1083.9 1093.35 1074.45C1084.2 1064.7 1084.65 1049.55 1094.1 1040.4C1103.85 1031.1 1119.3 1031.4 1128.15 1041.15Z" fill="#03CADA"/>
<path d="M1178.4 1093.65C1187.55 1103.4 1187.1 1118.55 1177.65 1127.7C1167.9 1136.85 1152.75 1136.4 1143.6 1126.95C1134.45 1117.2 1134.9 1102.05 1144.35 1092.9C1153.8 1083.75 1169.1 1083.9 1178.4 1093.65Z" fill="#03CADA"/>
<path d="M1228.35 1146.15C1237.5 1155.9 1237.05 1171.05 1227.6 1180.2C1217.85 1189.35 1202.7 1188.9 1193.55 1179.45C1184.4 1170 1184.85 1154.55 1194.3 1145.4C1203.9 1136.1 1219.05 1136.7 1228.35 1146.15Z" fill="#03CADA"/>
<path d="M1762.5 571.35C1772.25 562.2 1787.55 562.65 1796.85 572.1C1806 581.85 1805.55 597.15 1796.1 606.45C1786.35 615.6 1771.05 615.15 1761.75 605.7C1752.6 595.95 1753.05 580.65 1762.5 571.35Z" fill="#2F2544"/>
<path d="M1815.6 520.95C1825.35 511.8 1840.65 512.25 1849.95 521.7C1859.1 531.45 1858.65 546.75 1849.2 556.05C1839.45 565.2 1824.15 564.75 1814.85 555.3C1805.55 545.55 1805.85 530.25 1815.6 520.95Z" fill="#2F2544"/>
<path d="M1868.55 470.85C1878.3 461.7 1893.6 462.15 1902.9 471.6C1912.05 481.35 1911.6 496.65 1902.15 505.95C1892.4 515.1 1877.1 514.65 1867.8 505.2C1858.5 495.15 1858.8 480 1868.55 470.85Z" fill="#2F2544"/>
<path d="M1920 421.95V453.75C1917.9 451.35 1916.4 448.8 1915.5 445.95C1912.65 438 1914.15 428.7 1920 421.95Z" fill="#2F2544"/>
<path d="M1749.45 557.55C1759.2 548.4 1774.5 548.85 1783.8 558.3C1792.95 568.05 1792.5 583.35 1783.05 592.65C1773.3 601.8 1758 601.35 1748.7 591.9C1739.25 582.15 1739.85 566.85 1749.45 557.55Z" fill="#03CADA"/>
<path d="M1802.55 507.15C1812.3 498 1827.6 498.45 1836.9 507.9C1846.2 517.65 1845.6 532.95 1836.15 542.25C1826.4 551.4 1811.1 550.95 1801.8 541.5C1792.2 531.75 1792.8 516.3 1802.55 507.15Z" fill="#03CADA"/>
<path d="M1855.5 456.75C1865.25 447.6 1880.55 448.05 1889.85 457.5C1899.15 467.25 1898.55 482.55 1889.1 491.85C1879.35 501 1864.05 500.55 1854.75 491.1C1845.3 481.35 1845.75 465.9 1855.5 456.75Z" fill="#03CADA"/>
<path d="M1920 400.2V447.45C1918.5 447.15 1917 446.7 1915.5 446.1C1912.5 444.9 1909.8 443.1 1907.55 440.7C1898.25 430.95 1898.85 415.65 1908.3 406.35C1911.6 403.05 1915.8 400.95 1920 400.2Z" fill="#03CADA"/>
<path d="M281.85 413.7L292.8 428.25L335.55 337.05L226.5 341.7L238.35 357L309.75 354.15L281.85 413.7Z" fill="#2F2544"/>
<path d="M309.75 354.3L238.35 357.15L200.7 358.65L267 445.2L281.85 413.7L309.75 354.3Z" fill="#03CADA"/>
<path d="M1533.75 560.4L1518.6 558.15L1544.25 637.8L1608.3 573.3L1592.1 570.45L1550.4 612.75L1533.75 560.4Z" fill="#2F2544"/>
<path d="M1550.4 612.6L1592.1 570.3L1614.15 548.1L1524.75 532.95L1533.75 560.4L1550.4 612.6Z" fill="#03CADA"/>
<path d="M454.5 730.65L421.35 763.8L454.5 796.95L487.65 763.8L454.5 730.65Z" fill="white"/>
<path d="M286.65 945.9L237.75 994.8L286.65 1043.7L335.55 994.8L286.65 945.9Z" fill="#2F2544"/>
<path d="M1721.4 373.05L1680.9 413.55L1721.4 454.05L1761.9 413.55L1721.4 373.05Z" fill="#03CADA"/>
<path d="M424.95 601.35L448.5 673.05L502.2 620.1L424.95 601.35Z" fill="#2F2544"/>
<path d="M882.45 271.35L906 342.45L959.55 289.65L882.45 271.35Z" fill="#2F2544"/>
<path d="M1362 723L1333.05 721.5L1333.5 708.75L1351.95 709.8L1356.75 686.55L1380.6 687.9L1385.7 664.65L1409.55 666L1413.45 648.15L1426.05 651L1419.9 679.35L1396.05 678L1390.95 701.25L1367.1 699.9L1362 723Z" fill="#03CADA"/>
<path d="M102.15 1072.95L128.4 1185.45L131.85 1200H134.55L130.65 1183.2L105.75 1076.55L457.2 1176.45L432.45 1200H436.05L462.15 1175.1L102.15 1072.95Z" fill="#03CADA"/>
<path d="M1174.05 421.95C1174.05 419.4 1171.95 417.3 1169.4 417.3C1166.85 417.3 1164.75 419.4 1164.75 421.95C1164.75 424.5 1166.85 426.6 1169.4 426.6C1171.95 426.45 1174.05 424.5 1174.05 421.95Z" fill="#2F2544"/>
<path d="M1217.25 421.95C1217.25 419.4 1215.15 417.3 1212.6 417.3C1210.05 417.3 1207.95 419.4 1207.95 421.95C1207.95 424.5 1210.05 426.6 1212.6 426.6C1215.3 426.45 1217.25 424.5 1217.25 421.95Z" fill="#2F2544"/>
<path d="M1260.6 421.95C1260.6 419.4 1258.5 417.3 1255.95 417.3C1253.4 417.3 1251.3 419.4 1251.3 421.95C1251.3 424.5 1253.4 426.6 1255.95 426.6C1258.5 426.45 1260.6 424.5 1260.6 421.95Z" fill="#2F2544"/>
<path d="M1195.05 443.1C1195.05 440.55 1192.95 438.45 1190.4 438.45C1187.85 438.45 1185.75 440.55 1185.75 443.1C1185.75 445.65 1187.85 447.75 1190.4 447.75C1192.95 447.75 1195.05 445.5 1195.05 443.1Z" fill="#2F2544"/>
<path d="M1238.55 443.1C1238.55 440.55 1236.45 438.45 1233.9 438.45C1231.35 438.45 1229.25 440.55 1229.25 443.1C1229.25 445.65 1231.35 447.75 1233.9 447.75C1236.45 447.45 1238.55 445.5 1238.55 443.1Z" fill="#2F2544"/>
<path d="M1174.05 465.9C1174.05 463.35 1171.95 461.25 1169.4 461.25C1166.85 461.25 1164.75 463.35 1164.75 465.9C1164.75 468.45 1166.85 470.55 1169.4 470.55C1171.95 470.55 1174.05 468.45 1174.05 465.9Z" fill="#2F2544"/>
<path d="M1217.25 465.9C1217.25 463.35 1215.15 461.25 1212.6 461.25C1210.05 461.25 1207.95 463.35 1207.95 465.9C1207.95 468.45 1210.05 470.55 1212.6 470.55C1215.3 470.55 1217.25 468.45 1217.25 465.9Z" fill="#2F2544"/>
<path d="M1260.6 465.9C1260.6 463.35 1258.5 461.25 1255.95 461.25C1253.4 461.25 1251.3 463.35 1251.3 465.9C1251.3 468.45 1253.4 470.55 1255.95 470.55C1258.5 470.55 1260.6 468.45 1260.6 465.9Z" fill="#2F2544"/>
<path d="M1195.05 487.2C1195.05 484.65 1192.95 482.55 1190.4 482.55C1187.85 482.55 1185.75 484.65 1185.75 487.2C1185.75 489.75 1187.85 491.85 1190.4 491.85C1192.95 491.85 1195.05 489.45 1195.05 487.2Z" fill="#2F2544"/>
<path d="M1238.55 487.2C1238.55 484.65 1236.45 482.55 1233.9 482.55C1231.35 482.55 1229.25 484.65 1229.25 487.2C1229.25 489.75 1231.35 491.85 1233.9 491.85C1236.45 491.55 1238.55 489.45 1238.55 487.2Z" fill="#2F2544"/>
<path d="M1174.05 509.7C1174.05 507.15 1171.95 505.05 1169.4 505.05C1166.85 505.05 1164.75 507.15 1164.75 509.7C1164.75 512.25 1166.85 514.35 1169.4 514.35C1171.95 514.35 1174.05 512.25 1174.05 509.7Z" fill="#2F2544"/>
<path d="M1217.25 509.7C1217.25 507.15 1215.15 505.05 1212.6 505.05C1210.05 505.05 1207.95 507.15 1207.95 509.7C1207.95 512.25 1210.05 514.35 1212.6 514.35C1215.3 514.35 1217.25 512.25 1217.25 509.7Z" fill="#2F2544"/>
<path d="M1260.6 509.7C1260.6 507.15 1258.5 505.05 1255.95 505.05C1253.4 505.05 1251.3 507.15 1251.3 509.7C1251.3 512.25 1253.4 514.35 1255.95 514.35C1258.5 514.35 1260.6 512.25 1260.6 509.7Z" fill="#2F2544"/>
<path d="M1195.05 530.7C1195.05 528.15 1192.95 526.05 1190.4 526.05C1187.85 526.05 1185.75 528.15 1185.75 530.7C1185.75 533.25 1187.85 535.35 1190.4 535.35C1192.95 535.35 1195.05 533.25 1195.05 530.7Z" fill="#2F2544"/>
<path d="M1238.55 530.7C1238.55 528.15 1236.45 526.05 1233.9 526.05C1231.35 526.05 1229.25 528.15 1229.25 530.7C1229.25 533.25 1231.35 535.35 1233.9 535.35C1236.45 535.35 1238.55 533.25 1238.55 530.7Z" fill="#2F2544"/>
<path d="M1274.55 430.35C1260.6 430.35 1248 435.45 1238.4 444C1237.05 445.05 1235.85 446.25 1234.8 447.6C1225.5 457.35 1219.8 470.55 1219.8 485.1C1219.8 515.25 1244.4 539.85 1274.55 539.85C1304.7 539.85 1329.3 515.25 1329.6 485.1C1329.75 454.95 1304.85 430.35 1274.55 430.35ZM1274.55 518.7C1268.4 518.7 1262.55 517.05 1257.6 514.05C1255.35 512.7 1253.25 511.05 1251.3 509.25C1245 503.1 1241.1 494.55 1241.1 485.25C1241.1 466.8 1256.25 451.8 1274.55 451.8C1293 451.8 1308.15 466.95 1308.15 485.25C1308.15 503.55 1293 518.7 1274.55 518.7Z" fill="#03CADA"/>
<path d="M250.8 11.55C252.9 9.45 252.9 6.15 250.8 4.2C248.7 2.1 245.4 2.1 243.45 4.2C241.35 6.3 241.35 9.6 243.45 11.55C245.55 13.65 248.85 13.65 250.8 11.55Z" fill="#7B6490"/>
<path d="M286.2 46.95C288.3 44.85 288.3 41.55 286.2 39.6C284.1 37.5 280.8 37.5 278.85 39.6C276.75 41.7 276.75 45 278.85 46.95C280.8 49.05 284.1 49.05 286.2 46.95Z" fill="#7B6490"/>
<path d="M321.3 82.05C323.4 79.95 323.4 76.65 321.3 74.7C319.2 72.6 315.9 72.6 313.95 74.7C311.85 76.8 311.85 80.1 313.95 82.05C315.9 84 319.2 84 321.3 82.05Z" fill="#7B6490"/>
<path d="M215.85 10.8C217.95 8.7 217.95 5.4 215.85 3.45C213.75 1.35 210.45 1.35 208.5 3.45C206.4 5.55 206.4 8.85 208.5 10.8C210.45 12.9 213.75 12.9 215.85 10.8Z" fill="#7B6490"/>
<path d="M250.8 45.9C252.9 43.8 252.9 40.5 250.8 38.55C248.7 36.45 245.4 36.45 243.45 38.55C241.35 40.65 241.35 43.95 243.45 45.9C245.55 48 248.85 48 250.8 45.9Z" fill="#7B6490"/>
<path d="M286.2 81.0001C288.3 78.9001 288.3 75.6001 286.2 73.6501C284.1 71.5501 280.8 71.5501 278.85 73.6501C276.75 75.7501 276.75 79.0501 278.85 81.0001C280.8 83.1001 284.1 83.1001 286.2 81.0001Z" fill="#7B6490"/>
<path d="M180 12.3C182.1 10.2 182.1 6.9 180 4.95C177.9 2.85 174.6 2.85 172.65 4.95C170.55 7.05 170.55 10.35 172.65 12.3C174.6 14.4 177.9 14.4 180 12.3Z" fill="#7B6490"/>
<path d="M215.1 47.4C217.2 45.3 217.2 42 215.1 40.05C213 37.95 209.7 37.95 207.75 40.05C205.65 42.15 205.65 45.45 207.75 47.4C209.85 49.5 213 49.5 215.1 47.4Z" fill="#7B6490"/>
<path d="M250.35 82.5001C252.45 80.4001 252.45 77.1001 250.35 75.1501C248.25 73.0501 244.95 73.0501 243 75.1501C240.9 77.2501 240.9 80.5501 243 82.5001C244.95 84.6001 248.25 84.6001 250.35 82.5001Z" fill="#7B6490"/>
<path d="M285.45 117.9C287.55 115.8 287.55 112.5 285.45 110.55C283.35 108.45 280.05 108.45 278.1 110.55C276 112.65 276 115.95 278.1 117.9C280.05 119.85 283.35 119.85 285.45 117.9Z" fill="#7B6490"/>
<path d="M144.9 11.4001C147 9.30007 147 6.00007 144.9 3.90007C142.8 1.80007 139.5 1.80007 137.55 3.90007C135.45 6.00007 135.45 9.30007 137.55 11.2501C139.5 13.3501 142.8 13.3501 144.9 11.4001Z" fill="#7B6490"/>
<path d="M180 46.65C182.1 44.55 182.1 41.25 180 39.3C177.9 37.2 174.6 37.2 172.65 39.3C170.55 41.4 170.55 44.7 172.65 46.65C174.6 48.75 177.9 48.75 180 46.65Z" fill="#7B6490"/>
<path d="M215.1 81.7501C217.2 79.6501 217.2 76.3501 215.1 74.4001C213 72.3001 209.7 72.3001 207.75 74.4001C205.65 76.5001 205.65 79.8001 207.75 81.7501C209.85 83.8501 213 83.8501 215.1 81.7501Z" fill="#7B6490"/>
<path d="M250.35 116.85C252.45 114.75 252.45 111.45 250.35 109.5C248.25 107.4 244.95 107.4 243 109.5C240.9 111.6 240.9 114.9 243 116.85C244.95 118.8 248.25 118.8 250.35 116.85Z" fill="#7B6490"/>
<path d="M109.35 12.5999C111.45 10.4999 111.45 7.19993 109.35 5.24993C107.25 3.14993 103.95 3.14993 102 5.24993C99.9 7.34993 99.9 10.6499 102 12.5999C103.95 14.6999 107.25 14.6999 109.35 12.5999Z" fill="#7B6490"/>
<path d="M144.6 47.7C146.7 45.6 146.7 42.3 144.6 40.35C142.5 38.25 139.2 38.25 137.25 40.35C135.15 42.45 135.15 45.75 137.25 47.7C139.2 49.8 142.65 49.8 144.6 47.7Z" fill="#7B6490"/>
<path d="M179.7 83.0999C181.8 80.9999 181.8 77.6999 179.7 75.7499C177.6 73.6499 174.3 73.6499 172.35 75.7499C170.25 77.8499 170.25 81.1499 172.35 83.0999C174.3 85.0499 177.6 85.0499 179.7 83.0999Z" fill="#7B6490"/>
<path d="M211.2 119.7C214.05 119.7 216.3 117.45 216.3 114.6C216.3 111.75 214.05 109.5 211.2 109.5C208.35 109.5 206.1 111.75 206.1 114.6C206.1 117.45 208.35 119.7 211.2 119.7Z" fill="#7B6490"/>
<path d="M250.05 153.15C252.15 151.05 252.15 147.75 250.05 145.8C247.95 143.7 244.65 143.7 242.7 145.8C240.6 147.9 240.6 151.2 242.7 153.15C244.8 155.25 248.1 155.25 250.05 153.15Z" fill="#7B6490"/>
<path d="M109.35 46.95C111.45 44.85 111.45 41.55 109.35 39.6C107.25 37.5 103.95 37.5 102 39.6C99.9 41.7 99.9 45 102 46.95C103.95 49.05 107.25 49.05 109.35 46.95Z" fill="#7B6490"/>
<path d="M144.6 82.05C146.7 79.95 146.7 76.65 144.6 74.7C142.5 72.6 139.2 72.6 137.25 74.7C135.15 76.8 135.15 80.1 137.25 82.05C139.2 84 142.65 84 144.6 82.05Z" fill="#7B6490"/>
<path d="M179.7 117C181.8 114.9 181.8 111.6 179.7 109.65C177.6 107.55 174.3 107.55 172.35 109.65C170.25 111.75 170.25 115.05 172.35 117C174.3 119.1 177.6 119.1 179.7 117Z" fill="#7B6490"/>
<path d="M211.2 153.75C214.05 153.75 216.3 151.5 216.3 148.65C216.3 145.8 214.05 143.55 211.2 143.55C208.35 143.55 206.1 145.8 206.1 148.65C206.1 151.35 208.35 153.75 211.2 153.75Z" fill="#7B6490"/>
<path d="M73.5 48.45C75.6 46.35 75.6 43.05 73.5 41.1C71.4 39 68.1 39 66.15 41.1C64.05 43.2 64.05 46.5 66.15 48.45C68.4 50.55 71.4 50.55 73.5 48.45Z" fill="#7B6490"/>
<path d="M108.75 83.55C110.85 81.45 110.85 78.15 108.75 76.2C106.65 74.1 103.35 74.1 101.4 76.2C99.3 78.3 99.3 81.6 101.4 83.55C103.35 85.65 106.8 85.65 108.75 83.55Z" fill="#7B6490"/>
<path d="M143.85 118.65C145.95 116.55 145.95 113.25 143.85 111.3C141.75 109.2 138.45 109.2 136.5 111.3C134.4 113.4 134.4 116.7 136.5 118.65C138.45 120.6 141.75 120.6 143.85 118.65Z" fill="#7B6490"/>
<path d="M175.35 155.25C178.2 155.25 180.45 153 180.45 150.15C180.45 147.3 178.2 145.05 175.35 145.05C172.5 145.05 170.25 147.3 170.25 150.15C170.25 153 172.5 155.25 175.35 155.25Z" fill="#7B6490"/>
<path d="M214.2 189C216.3 186.9 216.3 183.6 214.2 181.65C212.1 179.55 208.8 179.55 206.85 181.65C204.75 183.75 204.75 187.05 206.85 189C208.95 191.1 212.25 191.1 214.2 189Z" fill="#7B6490"/>
<path d="M902.1 904.2L810.45 992.85L917.7 1023.9L902.1 904.2ZM896.25 920.55L908.55 1013.25L825.6 989.25L896.25 920.55Z" fill="#03CADA"/>
<path d="M979.95 555.45L1028.1 605.1L1037.7 615L1060.65 638.7L1073.7 593.55L1077.75 579.3L1088.7 541.2L979.95 555.45ZM1069.95 580.5L1065.6 595.65L1057.05 625.2L1042.2 609.9L1032.75 600.15L994.5 560.7L1078.8 549.75L1069.95 580.5Z" fill="#03CADA"/>
<path d="M0 952.8V991.95C15.6 992.55 27.9 1005.3 27.9 1020.9C27.9 1036.35 15.45 1049.25 0 1049.85V1089.6C37.5 1089 67.65 1058.55 67.35 1021.2C67.35 983.85 37.2 953.4 0 952.8Z" fill="#2F2544"/>
<path d="M1914.15 670.5C1916.1 670.5 1918.05 670.65 1920 670.95V614.1C1918.05 613.95 1916.1 613.95 1914.15 613.95C1860.15 613.95 1816.35 657.75 1816.35 711.75C1816.35 765.75 1860.15 809.55 1914.15 809.55C1916.1 809.55 1918.05 809.55 1920 809.4V752.55C1918.05 752.85 1916.1 753 1914.15 753C1891.35 753 1872.9 734.55 1872.9 711.75C1872.9 688.95 1891.35 670.5 1914.15 670.5Z" fill="#2F2544"/>
<path d="M330.3 957.15L314.1 973.35L287.7 999.75L320.7 1032.75L363.15 990.3L330.3 957.15ZM313.8 1016.55L296.7 999.45L330 966.15L354 990.15L320.7 1023.45L313.8 1016.55Z" fill="#03CADA"/>
</g>
</svg>
