<svg width="21" height="20" viewBox="0 0 21 20" fill="none" xmlns="http://www.w3.org/2000/svg">
<path d="M20.747 18.5796L15.9342 13.7714C17.1272 12.3184 17.8462 10.4571 17.8462 8.42857C17.8462 3.77551 14.067 0 9.40939 0C4.74767 0 0.972534 3.77551 0.972534 8.42857C0.972534 13.0816 4.74767 16.8571 9.40939 16.8571C11.44 16.8571 13.2989 16.1429 14.7534 14.951L19.5663 19.7551C19.8932 20.0816 20.4202 20.0816 20.747 19.7551C21.0739 19.4327 21.0739 18.902 20.747 18.5796ZM9.40939 15.1796C5.6792 15.1796 2.64765 12.151 2.64765 8.42857C2.64765 4.70612 5.6792 1.67347 9.40939 1.67347C13.1355 1.67347 16.1711 4.70612 16.1711 8.42857C16.1711 12.151 13.1355 15.1796 9.40939 15.1796Z" fill="white"/>
</svg>
