<svg width="314" height="330" viewBox="0 0 314 330" fill="none" xmlns="http://www.w3.org/2000/svg">
<path d="M180.638 306.055C148.974 315.166 117.265 306.055 87.1526 286.694C34.2732 252.527 22.7301 186.472 52.2039 131.805C83.2745 74.4506 152.579 58.415 208.378 91.9895C219.698 98.7466 229.788 107.373 238.217 117.501C244.028 124.624 251.738 129.961 260.457 132.895C269.176 135.829 278.548 136.241 287.492 134.083L289.043 133.673C293.827 132.506 298.28 130.263 302.064 127.117C305.848 123.97 308.863 120.003 310.878 115.517C312.894 111.031 313.857 106.144 313.694 101.23C313.531 96.3162 312.247 91.504 309.939 87.1606C295.778 60.7488 274.654 38.7054 248.853 23.414C223.051 8.12269 193.554 0.165427 163.55 0.402768C133.547 0.640109 104.179 9.06302 78.6237 24.7606C53.068 40.4582 32.2967 62.8331 18.556 89.4656C4.81531 116.098 -1.3718 145.975 0.663757 175.864C2.69931 205.754 12.8801 234.519 30.105 259.049C47.33 283.579 70.9436 302.941 98.3923 315.039C125.841 327.138 156.08 331.514 185.839 327.694C187.314 327.477 188.729 326.961 189.997 326.178C191.265 325.396 192.36 324.363 193.215 323.143C194.069 321.923 194.665 320.542 194.966 319.084C195.267 317.627 195.266 316.123 194.964 314.665C194.643 313.131 194.008 311.68 193.099 310.402C192.19 309.125 191.027 308.048 189.682 307.24C188.338 306.432 186.84 305.909 185.284 305.706C183.728 305.502 182.146 305.621 180.638 306.055Z" fill="url(#paint0_linear)"/>
<path style="mix-blend-mode:multiply" opacity="0.6" d="M180.638 306.055C148.974 315.166 117.265 306.055 87.1526 286.694C34.2732 252.527 22.7301 186.472 52.2039 131.805C83.2745 74.4506 152.579 58.415 208.378 91.9895C219.698 98.7466 229.788 107.373 238.217 117.501C244.028 124.624 251.738 129.961 260.457 132.895C269.176 135.829 278.548 136.241 287.492 134.083L289.043 133.673C293.827 132.506 298.28 130.263 302.064 127.117C305.848 123.97 308.863 120.003 310.878 115.517C312.894 111.031 313.857 106.144 313.694 101.23C313.531 96.3162 312.247 91.504 309.939 87.1606C295.778 60.7488 274.654 38.7054 248.853 23.414C223.051 8.12269 193.554 0.165427 163.55 0.402768C133.547 0.640109 104.179 9.06302 78.6237 24.7606C53.068 40.4582 32.2967 62.8331 18.556 89.4656C4.81531 116.098 -1.3718 145.975 0.663757 175.864C2.69931 205.754 12.8801 234.519 30.105 259.049C47.33 283.579 70.9436 302.941 98.3923 315.039C125.841 327.138 156.08 331.514 185.839 327.694C187.314 327.477 188.729 326.961 189.997 326.178C191.265 325.396 192.36 324.363 193.215 323.143C194.069 321.923 194.665 320.542 194.966 319.084C195.267 317.627 195.266 316.123 194.964 314.665C194.643 313.131 194.008 311.68 193.099 310.402C192.19 309.125 191.027 308.048 189.682 307.24C188.338 306.432 186.84 305.909 185.284 305.706C183.728 305.502 182.146 305.621 180.638 306.055Z" fill="url(#paint1_linear)"/>
<path d="M46.3141 132.716C62.5024 105.974 88.6184 86.7028 118.973 79.1001C149.328 71.4974 181.461 76.1794 208.374 92.1261C219.694 98.8832 229.784 107.509 238.213 117.637C244.023 124.761 251.733 130.098 260.453 133.032C269.172 135.966 278.544 136.378 287.488 134.219L289.039 133.809C293.842 132.648 298.314 130.403 302.113 127.248C305.911 124.092 308.936 120.109 310.953 115.606C312.971 111.102 313.928 106.196 313.752 101.265C313.575 96.3342 312.27 91.5093 309.935 87.1606C296.501 62.1116 276.791 40.9692 252.729 25.7975C228.667 10.6258 201.077 1.94339 172.651 0.597939C144.225 -0.747511 115.936 5.29001 90.5445 18.121C65.1534 30.952 43.5285 50.138 27.7812 73.8057C12.0339 97.4733 2.70245 124.814 0.697847 153.158C-1.30675 181.502 4.08405 209.88 16.3439 235.523C28.6038 261.165 47.3137 283.195 70.6469 299.461C93.9801 315.728 121.139 325.675 149.472 328.332C11.046 303.458 19.9428 175.857 46.3141 132.716Z" fill="url(#paint2_linear)"/>
<path style="mix-blend-mode:multiply" opacity="0.6" d="M46.3141 132.716C62.5024 105.974 88.6184 86.7028 118.973 79.1001C149.328 71.4974 181.461 76.1794 208.374 92.1261C219.694 98.8832 229.784 107.509 238.213 117.637C244.023 124.761 251.733 130.098 260.453 133.032C269.172 135.966 278.544 136.378 287.488 134.219L289.039 133.809C293.842 132.648 298.314 130.403 302.113 127.248C305.911 124.092 308.936 120.109 310.953 115.606C312.971 111.102 313.928 106.196 313.752 101.265C313.575 96.3342 312.27 91.5093 309.935 87.1606C296.501 62.1116 276.791 40.9692 252.729 25.7975C228.667 10.6258 201.077 1.94339 172.651 0.597939C144.225 -0.747511 115.936 5.29001 90.5445 18.121C65.1534 30.952 43.5285 50.138 27.7812 73.8057C12.0339 97.4733 2.70245 124.814 0.697847 153.158C-1.30675 181.502 4.08405 209.88 16.3439 235.523C28.6038 261.165 47.3137 283.195 70.6469 299.461C93.9801 315.728 121.139 325.675 149.472 328.332C11.046 303.458 19.9428 175.857 46.3141 132.716Z" fill="url(#paint3_linear)"/>
<path d="M123.423 52.7662C191.861 50.534 224.346 89.894 241.181 115.678C245.904 123.303 252.948 129.218 261.282 132.554C269.615 135.891 278.8 136.475 287.491 134.22L289.042 133.81C293.844 132.648 298.317 130.403 302.115 127.248C305.914 124.092 308.938 120.11 310.956 115.606C312.973 111.102 313.931 106.196 313.754 101.265C313.578 96.3343 312.272 91.5094 309.938 87.1606C292.445 54.3186 264.308 28.3748 230.131 13.5718C195.953 -1.23125 157.756 -4.01744 121.787 5.6688C85.8173 15.355 54.2036 36.9405 32.1156 66.8954C10.0275 96.8502 -1.22791 133.402 0.189979 170.573C-1.13315 102.65 54.8487 54.9984 123.423 52.7662Z" fill="url(#paint4_linear)"/>
<path d="M289.04 127.751L287.488 128.115C278.798 130.37 269.613 129.787 261.279 126.45C252.946 123.113 245.901 117.199 241.179 109.574C224.343 83.835 191.95 44.475 123.421 46.6617C54.8921 48.8483 -1.13539 96.7728 0.233359 164.468C0.233359 163.512 0.233359 162.509 0.233359 161.553C0.233359 164.559 0.233359 167.566 0.233359 170.664C-1.08977 102.741 54.9834 55.0895 123.421 52.8572C191.858 50.625 224.343 89.8939 241.179 115.678C245.901 123.303 252.946 129.218 261.279 132.554C269.613 135.891 278.798 136.475 287.488 134.219L289.04 133.809C296.551 131.936 303.14 127.435 307.611 121.124C312.081 114.813 314.136 107.11 313.403 99.415C312.781 106.076 310.103 112.379 305.739 117.455C301.375 122.531 295.539 126.128 289.04 127.751Z" fill="url(#paint5_linear)"/>
<path d="M228.13 307.194C228.13 309.546 227.432 311.844 226.123 313.8C224.815 315.755 222.955 317.279 220.779 318.179C218.603 319.079 216.209 319.314 213.899 318.855C211.589 318.397 209.467 317.264 207.802 315.601C206.136 313.939 205.002 311.82 204.543 309.514C204.083 307.207 204.319 304.816 205.22 302.644C206.122 300.471 207.648 298.614 209.606 297.308C211.564 296.001 213.867 295.304 216.222 295.304C219.38 295.304 222.409 296.557 224.642 298.786C226.876 301.016 228.13 304.041 228.13 307.194Z" fill="url(#paint6_linear)"/>
<path d="M180.635 306.055C148.971 315.166 117.262 306.055 87.1496 286.694C71.5605 276.848 58.7152 263.23 49.8058 247.102C40.8964 230.975 36.2117 212.862 36.1865 194.444C35.5471 213.538 39.9128 232.467 48.8514 249.358C57.7901 266.249 70.9917 280.517 87.1496 290.748C117.262 310.383 148.971 319.494 180.635 310.11C182.158 309.653 183.759 309.519 185.337 309.715C186.915 309.91 188.434 310.432 189.799 311.246C191.164 312.06 192.344 313.149 193.264 314.444C194.184 315.738 194.825 317.21 195.144 318.765C195.417 317.381 195.417 315.958 195.144 314.574C194.815 313.028 194.167 311.567 193.242 310.284C192.316 309.002 191.133 307.925 189.769 307.124C188.404 306.323 186.887 305.814 185.315 305.63C183.742 305.446 182.149 305.591 180.635 306.055Z" fill="url(#paint7_linear)"/>
<path d="M252.816 292.434C252.816 294.157 252.303 295.841 251.344 297.273C250.384 298.705 249.021 299.82 247.426 300.477C245.831 301.134 244.076 301.304 242.384 300.964C240.693 300.625 239.14 299.792 237.923 298.57C236.706 297.349 235.88 295.794 235.549 294.103C235.218 292.413 235.397 290.662 236.063 289.073C236.73 287.483 237.854 286.128 239.293 285.177C240.732 284.227 242.422 283.724 244.147 283.733C245.289 283.733 246.42 283.958 247.475 284.396C248.53 284.834 249.487 285.476 250.293 286.284C251.098 287.093 251.736 288.052 252.169 289.108C252.602 290.163 252.822 291.294 252.816 292.434Z" fill="url(#paint8_linear)"/>
<path d="M263.718 283.733C266.817 283.733 269.33 281.224 269.33 278.129C269.33 275.035 266.817 272.526 263.718 272.526C260.618 272.526 258.106 275.035 258.106 278.129C258.106 281.224 260.618 283.733 263.718 283.733Z" fill="url(#paint9_linear)"/>
<path d="M46.3141 132.716C56.7273 115.602 71.2888 101.382 88.6555 91.3659C106.022 81.3503 125.635 75.862 145.685 75.4074C124.827 75.0331 104.235 80.1285 85.9655 90.1846C67.6959 100.241 52.3877 114.906 41.5691 132.716C15.791 174.81 6.7116 297.4 135.1 326.373C139.663 327.238 144.682 327.922 149.472 328.332C11.046 303.458 19.9428 175.857 46.3141 132.716Z" fill="url(#paint10_linear)"/>
<defs>
<linearGradient id="paint0_linear" x1="0.0545022" y1="164.833" x2="313.589" y2="164.833" gradientUnits="userSpaceOnUse">
<stop stop-color="#FA71CD"/>
<stop offset="1" stop-color="#C471F5"/>
</linearGradient>
<linearGradient id="paint1_linear" x1="11713.1" y1="8357.66" x2="11954.3" y2="20950.6" gradientUnits="userSpaceOnUse">
<stop offset="0.11" stop-color="#666666"/>
<stop offset="0.29" stop-color="#7C7C7C" stop-opacity="0.85"/>
<stop offset="0.63" stop-color="#B7B7B7" stop-opacity="0.47"/>
<stop offset="1" stop-color="white" stop-opacity="0"/>
</linearGradient>
<linearGradient id="paint2_linear" x1="171.737" y1="57.0028" x2="128.611" y2="258.613" gradientUnits="userSpaceOnUse">
<stop stop-color="#764BA2"/>
<stop offset="1" stop-color="#667EEA"/>
</linearGradient>
<linearGradient id="paint3_linear" x1="17536.5" y1="8526.28" x2="6102.52" y2="13418.5" gradientUnits="userSpaceOnUse">
<stop offset="0.11" stop-color="#666666"/>
<stop offset="0.29" stop-color="#7C7C7C" stop-opacity="0.85"/>
<stop offset="0.63" stop-color="#B7B7B7" stop-opacity="0.47"/>
<stop offset="1" stop-color="white" stop-opacity="0"/>
</linearGradient>
<linearGradient id="paint4_linear" x1="0.0531036" y1="85.5662" x2="313.543" y2="85.5662" gradientUnits="userSpaceOnUse">
<stop stop-color="#4FACFE"/>
<stop offset="1" stop-color="#00F2FE"/>
</linearGradient>
<linearGradient id="paint5_linear" x1="0.0964837" y1="108.572" x2="313.54" y2="108.572" gradientUnits="userSpaceOnUse">
<stop stop-color="#00EDFF"/>
<stop offset="1" stop-color="#00F2FE" stop-opacity="0"/>
</linearGradient>
<linearGradient id="paint6_linear" x1="1419.42" y1="1835.29" x2="1388.07" y2="1977.99" gradientUnits="userSpaceOnUse">
<stop stop-color="#FA71CD"/>
<stop offset="1" stop-color="#C471F5"/>
</linearGradient>
<linearGradient id="paint7_linear" x1="89.8415" y1="253.712" x2="187.29" y2="268.424" gradientUnits="userSpaceOnUse">
<stop stop-color="#FF99F5"/>
<stop offset="0.99" stop-color="#C471F5" stop-opacity="0"/>
</linearGradient>
<linearGradient id="paint8_linear" x1="1225.87" y1="1363.89" x2="1216.66" y2="1435.07" gradientUnits="userSpaceOnUse">
<stop stop-color="#FA71CD"/>
<stop offset="1" stop-color="#C471F5"/>
</linearGradient>
<linearGradient id="paint9_linear" x1="943.653" y1="943.023" x2="937.722" y2="973.284" gradientUnits="userSpaceOnUse">
<stop stop-color="#FA71CD"/>
<stop offset="1" stop-color="#C471F5"/>
</linearGradient>
<linearGradient id="paint10_linear" x1="80.8978" y1="283.232" x2="124.48" y2="95.4681" gradientUnits="userSpaceOnUse">
<stop stop-color="#90A8FC"/>
<stop offset="1" stop-color="#667EEA" stop-opacity="0"/>
</linearGradient>
</defs>
</svg>
